<?xml version="1.0" encoding="UTF-8" standalone="no"?><!DOCTYPE svg PUBLIC "-//W3C//DTD SVG 1.1//EN" "http://www.w3.org/Graphics/SVG/1.1/DTD/svg11.dtd"><svg width="100%" height="100%" viewBox="0 0 140 140" version="1.1" xmlns="http://www.w3.org/2000/svg" xmlns:xlink="http://www.w3.org/1999/xlink" xml:space="preserve" xmlns:serif="http://www.serif.com/" style="fill-rule:evenodd;clip-rule:evenodd;stroke-linejoin:round;stroke-miterlimit:2;"><g><rect x="0" y="0" width="140" height="140" style="fill:#fff;"/><path d="M123.502,103.872l-0,-34.551c-0,0 -23.17,11.562 -53.867,11.562c-28.248,0 -53.141,-11.925 -53.141,-11.925l0,34.914c0,7.255 6.892,7.119 6.892,7.119l92.861,-0c7.708,-0 7.255,-7.119 7.255,-7.119Zm-46.566,-15.824c-0,1.995 -1.587,3.446 -3.583,3.446l-7.118,-0c-1.995,-0 -3.582,-1.497 -3.582,-3.446l-0,-3.673l14.419,-0.091c-0,-0.045 -0.136,1.769 -0.136,3.764Zm-60.442,-22.762c0,-0 30.47,11.97 53.277,11.97c24.939,0 53.731,-12.106 53.731,-12.106l-0,-14.736c-0,-7.482 -7.391,-7.119 -7.391,-7.119l-28.429,-0l-0,-7.255c-0,-7.391 -6.938,-7.028 -6.938,-7.028l-21.628,-0c-6.801,-0 -7.028,7.119 -7.028,7.119l-0,7.164l-28.566,-0c-7.3,-0 -7.028,7.119 -7.028,7.119l0,14.872Zm60.578,8.479l-14.419,-0.091c-0,0 0.09,-1.587 0.09,-3.582c0,-1.95 1.587,-3.582 3.582,-3.582l7.164,0c1.996,0 3.583,1.587 3.583,3.582l-0,3.673Zm-17.956,-34.279c0,-3.265 3.582,-3.446 3.582,-3.446l14.419,0c3.809,0 3.582,3.899 3.582,3.899l-0.091,3.356l-21.492,-0l0,-3.809Z" style="fill:#c5c5c5;fill-rule:nonzero;"/></g></svg>