<?xml version="1.0"?>
<svg xmlns="http://www.w3.org/2000/svg" class="icon--sprite">
  <defs>
    <symbol viewBox="0 0 24 24" stroke-linecap="round" stroke-linejoin="round" id="icon--arrow-merge">
      <path d="M8 7l4 -4l4 4"/>
      <path d="M12 3v5.394a6.737 6.737 0 0 1 -3 5.606a6.737 6.737 0 0 0 -3 5.606v1.394"/>
      <path d="M12 3v5.394a6.737 6.737 0 0 0 3 5.606a6.737 6.737 0 0 1 3 5.606v1.394"/>
    </symbol>
    <symbol viewBox="0 0 24 24" stroke-linecap="round" stroke-linejoin="round" id="icon--bullet-go">
      <path d="M18 15l3 -3l-3 -3"/>
      <path d="M5 12m-2 0a2 2 0 1 0 4 0a2 2 0 1 0 -4 0"/>
      <path d="M7 12h14"/>
    </symbol>
    <symbol viewBox="0 0 24 24" stroke-linecap="round" stroke-linejoin="round" id="icon--calendar-view-day">
      <path d="M4 7a2 2 0 0 1 2 -2h12a2 2 0 0 1 2 2v12a2 2 0 0 1 -2 2h-12a2 2 0 0 1 -2 -2v-12z"/>
      <path d="M16 3v4"/>
      <path d="M8 3v4"/>
      <path d="M4 11h16"/>
      <path d="M11 15h1"/>
      <path d="M12 15v3"/>
    </symbol>
    <symbol viewBox="0 0 24 24" stroke-linecap="round" stroke-linejoin="round" id="icon--clock-red">
      <path d="M3 12a9 9 0 1 0 18 0a9 9 0 0 0 -18 0"/>
      <path d="M12 7v5l3 3"/>
    </symbol>
    <symbol viewBox="0 0 24 24" stroke-linecap="round" stroke-linejoin="round" id="icon--company">
      <path d="M3 21l18 0"/>
      <path d="M9 8l1 0"/>
      <path d="M9 12l1 0"/>
      <path d="M9 16l1 0"/>
      <path d="M14 8l1 0"/>
      <path d="M14 12l1 0"/>
      <path d="M14 16l1 0"/>
      <path d="M5 21v-16a2 2 0 0 1 2 -2h10a2 2 0 0 1 2 2v16"/>
    </symbol>
    <symbol viewBox="0 0 24 24" stroke-linecap="round" stroke-linejoin="round" id="icon--date">
      <path d="M4 7a2 2 0 0 1 2 -2h12a2 2 0 0 1 2 2v12a2 2 0 0 1 -2 2h-12a2 2 0 0 1 -2 -2v-12z"/>
      <path d="M16 3v4"/>
      <path d="M8 3v4"/>
      <path d="M4 11h16"/>
      <path d="M11 15h1"/>
      <path d="M12 15v3"/>
    </symbol>
    <symbol viewBox="0 0 24 24" stroke-linecap="round" stroke-linejoin="round" id="icon--deal">
      <path d="M12 12m-1 0a1 1 0 1 0 2 0a1 1 0 1 0 -2 0"/>
      <path d="M12 7a5 5 0 1 0 5 5"/>
      <path d="M13 3.055a9 9 0 1 0 7.941 7.945"/>
      <path d="M15 6v3h3l3 -3h-3v-3z"/>
      <path d="M15 9l-3 3"/>
    </symbol>
    <symbol viewBox="0 0 24 24" stroke-linecap="round" stroke-linejoin="round" id="icon--feed">
      <path d="M5 19m-1 0a1 1 0 1 0 2 0a1 1 0 1 0 -2 0"/>
      <path d="M4 4a16 16 0 0 1 16 16"/>
      <path d="M4 11a9 9 0 0 1 9 9"/>
    </symbol>
    <symbol viewBox="0 0 24 24" stroke-linecap="round" stroke-linejoin="round" id="icon--meeting">
      <path d="M11.795 21h-6.795a2 2 0 0 1 -2 -2v-12a2 2 0 0 1 2 -2h12a2 2 0 0 1 2 2v4"/>
      <path d="M18 18m-4 0a4 4 0 1 0 8 0a4 4 0 1 0 -8 0"/>
      <path d="M15 3v4"/>
      <path d="M7 3v4"/>
      <path d="M3 11h16"/>
      <path d="M18 16.496v1.504l1 1"/>
    </symbol>
    <symbol viewBox="0 0 24 24" stroke-linecap="round" stroke-linejoin="round" id="icon--money">
      <path d="M12 12m-9 0a9 9 0 1 0 18 0a9 9 0 1 0 -18 0"/>
      <path d="M14.8 9a2 2 0 0 0 -1.8 -1h-2a2 2 0 1 0 0 4h2a2 2 0 1 1 0 4h-2a2 2 0 0 1 -1.8 -1"/>
      <path d="M12 7v10"/>
    </symbol>
    <symbol viewBox="0 0 24 24" stroke-linecap="round" stroke-linejoin="round" id="icon--person">
      <path d="M8 7a4 4 0 1 0 8 0a4 4 0 0 0 -8 0"/>
      <path d="M6 21v-2a4 4 0 0 1 4 -4h4a4 4 0 0 1 4 4v2"/>
    </symbol>
    <symbol viewBox="0 0 24 24" stroke-linecap="round" stroke-linejoin="round" id="icon--phone">
      <path d="M5 4h4l2 5l-2.5 1.5a11 11 0 0 0 5 5l1.5 -2.5l5 2v4a2 2 0 0 1 -2 2a16 16 0 0 1 -15 -15a2 2 0 0 1 2 -2"/>
    </symbol>
    <symbol viewBox="0 0 24 24" stroke-linecap="round" stroke-linejoin="round" id="icon--probability">
      <path d="M3 3m0 2a2 2 0 0 1 2 -2h14a2 2 0 0 1 2 2v14a2 2 0 0 1 -2 2h-14a2 2 0 0 1 -2 -2z"/>
      <circle cx="8.5" cy="8.5" r=".5"/>
      <circle cx="15.5" cy="15.5" r=".5"/>
      <circle cx="12" cy="12" r=".5"/>
    </symbol>
    <symbol viewBox="0 0 24 24" stroke-linecap="round" stroke-linejoin="round" id="icon--rosette">
      <path d="M12 9m-6 0a6 6 0 1 0 12 0a6 6 0 1 0 -12 0"/>
      <path d="M12 15l3.4 5.89l1.598 -3.233l3.598 .232l-3.4 -5.889"/>
      <path d="M6.802 12l-3.4 5.89l3.598 -.233l1.598 3.232l3.4 -5.889"/>
    </symbol>
    <symbol viewBox="0 0 24 24" stroke-linecap="round" stroke-linejoin="round" id="icon--target">
      <path d="M12 12m-1 0a1 1 0 1 0 2 0a1 1 0 1 0 -2 0"/>
      <path d="M12 12m-5 0a5 5 0 1 0 10 0a5 5 0 1 0 -10 0"/>
      <path d="M12 12m-9 0a9 9 0 1 0 18 0a9 9 0 1 0 -18 0"/>
    </symbol>
    <symbol viewBox="0 0 24 24" stroke-linecap="round" stroke-linejoin="round" id="icon--vcard">
      <path d="M3 4m0 3a3 3 0 0 1 3 -3h12a3 3 0 0 1 3 3v10a3 3 0 0 1 -3 3h-12a3 3 0 0 1 -3 -3z"/>
      <path d="M9 10m-2 0a2 2 0 1 0 4 0a2 2 0 1 0 -4 0"/>
      <path d="M15 8l2 0"/>
      <path d="M15 12l2 0"/>
      <path d="M7 16l10 0"/>
    </symbol>
    <symbol viewBox="0 0 24 24" stroke-linecap="round" stroke-linejoin="round" id="icon--add_contact">
      <path d="M11.994,20l-3.994,0c-1.097,0 -2,-0.903 -2,-2l0,-12c0,-1.097 0.903,-2 2,-2l10,0c1.097,0 2,0.903 2,2l0,5.975" />
      <path d="M10,16l3,0" />
      <path d="M11,11c0,1.097 0.903,2 2,2c1.097,0 2,-0.903 2,-2c0,-1.097 -0.903,-2 -2,-2c-1.097,0 -2,0.903 -2,2" />
      <path d="M4,8l3,0" />
      <path d="M4,12l3,0" />
      <path d="M4,16l3,0" />
      <path d="M16,19l6,0" />
      <path d="M19,16l0,6" />
    </symbol>
    <symbol viewBox="0 0 24 24" stroke-linecap="round" stroke-linejoin="round" id="icon--issue-note">
      <path d="M8 9h8"/>
      <path d="M8 13h6"/>
      <path d="M12.01 18.594l-4.01 2.406v-3h-2a3 3 0 0 1 -3 -3v-8a3 3 0 0 1 3 -3h12a3 3 0 0 1 3 3v5.5"/>
      <path d="M16 19h6"/>
      <path d="M19 16v6"/>
    </symbol>
  </defs>
</svg>
